<svg width="56" height="56" viewBox="0 0 56 56" fill="none" xmlns="http://www.w3.org/2000/svg">
<g clip-path="url(#clip0_335_5443)">
<path d="M43.3757 29.0215C42.0845 29.0215 40.865 28.4531 40.021 27.4557C39.2467 26.5404 38.8723 25.3735 38.9618 24.1944H31.9971C31.3931 24.1944 30.9033 23.7047 30.9033 23.1007V15.7246C30.9033 15.4 31.0475 15.0921 31.297 14.8843C31.5463 14.6765 31.8757 14.5904 32.1945 14.6488L32.26 14.6608C32.9179 14.7814 33.5898 14.6044 34.1035 14.1761C34.6174 13.7477 34.9121 13.1183 34.9121 12.4493C34.9121 11.7803 34.6175 11.1511 34.1036 10.7228C33.5899 10.2946 32.9178 10.1181 32.2598 10.2384L32.1944 10.2504C31.8749 10.3089 31.5462 10.2226 31.297 10.0148C31.0477 9.807 30.9034 9.49922 30.9034 9.17459V1.09375C30.9034 0.489672 31.3932 0 31.9972 0H50.1417C52.8745 0 55.0978 2.22327 55.0978 4.95611V23.1007C55.0978 23.7047 54.6082 24.1944 54.0041 24.1944H47.7919C47.8948 25.3475 47.5437 26.497 46.8014 27.401C45.9715 28.4115 44.7464 29.0019 43.44 29.021C43.4186 29.0213 43.3971 29.0215 43.3757 29.0215ZM33.0909 22.0069H40.2483C40.5728 22.0069 40.8806 22.1511 41.0885 22.4003C41.2962 22.6496 41.3828 22.9783 41.3242 23.2975L41.1752 24.1123C41.0489 24.8023 41.237 25.5059 41.6911 26.0427C42.1309 26.5625 42.7416 26.842 43.4081 26.8336C44.0696 26.824 44.6903 26.5246 45.1109 26.0125C45.5313 25.5006 45.7041 24.8332 45.5847 24.1814L45.4231 23.2974C45.3647 22.9782 45.4511 22.6495 45.6589 22.4002C45.8667 22.151 46.1745 22.0068 46.499 22.0068H52.9102V4.95611C52.9102 3.42945 51.6683 2.1875 50.1417 2.1875H33.0909V8.03381C33.969 8.11792 34.8099 8.46377 35.5042 9.04258C36.5181 9.88772 37.0995 11.1295 37.0995 12.4493C37.0995 13.7692 36.5181 15.0111 35.5042 15.8562C34.8098 16.4351 33.969 16.7811 33.0909 16.8653V22.0069Z" fill="#B38C00"/>
<path d="M46.0098 37.9533C46.6139 37.9533 47.1035 37.4636 47.1035 36.8595V32.8995C47.1035 32.2954 46.6139 31.8057 46.0098 31.8057H38.5048C38.1803 31.8057 37.8725 31.9499 37.6647 32.1992C37.4569 32.4484 37.3705 32.7771 37.4289 33.0964L37.5907 33.9803C37.71 34.6321 37.5373 35.2995 37.1167 35.8115C36.6961 36.3237 36.0754 36.6229 35.414 36.6326C34.7468 36.64 34.1367 36.3614 33.697 35.8417C33.2429 35.3049 33.0549 34.6013 33.1811 33.9113L33.3302 33.0965C33.3886 32.7772 33.3022 32.4485 33.0945 32.1992C32.8867 31.9499 32.5788 31.8057 32.2543 31.8057H25.0968V26.6641C25.9749 26.5799 26.8157 26.2341 27.5101 25.6551C28.524 24.8099 29.1053 23.5682 29.1053 22.2482C29.1053 20.9283 28.5239 19.6865 27.51 18.8414C26.8156 18.2626 25.9748 17.9167 25.0968 17.8326V10.8926C25.0968 10.2885 24.6071 9.79883 24.003 9.79883H5.85845C3.12561 9.79883 0.902344 12.0221 0.902344 14.7549V51.044C0.902344 53.7769 3.12561 56.0001 5.85845 56.0001H42.1475C44.8803 56.0001 47.1037 53.7769 47.1037 51.044V47.8699C47.1037 47.2658 46.614 46.7761 46.0099 46.7761C45.4059 46.7761 44.9162 47.2658 44.9162 47.8699V51.044C44.9162 52.5706 43.6742 53.8126 42.1475 53.8126H25.0968V46.7577C25.0968 46.4333 24.9527 46.1255 24.7035 45.9177C24.4544 45.7099 24.1256 45.6234 23.8066 45.6817L23.7404 45.6937C23.0824 45.8142 22.4103 45.6377 21.8967 45.2095C21.3828 44.7813 21.088 44.1521 21.088 43.4825C21.088 42.8136 21.3827 42.1842 21.8967 41.7559C22.4105 41.3275 23.0824 41.1508 23.741 41.2715L23.8066 41.2834C24.1254 41.3415 24.4543 41.2552 24.7035 41.0474C24.9527 40.8396 25.0968 40.5319 25.0968 40.2074V33.993H30.9678C30.8781 35.1721 31.2525 36.3389 32.027 37.2543C32.8849 38.2683 34.1348 38.8401 35.4458 38.8196C36.7521 38.8006 37.9773 38.2101 38.8072 37.1996C39.5496 36.2957 39.9007 35.1462 39.7977 33.993H44.9162V36.8595C44.916 37.4636 45.4058 37.9533 46.0098 37.9533ZM3.08984 14.7549C3.08984 13.2284 4.33191 11.9863 5.85845 11.9863H22.9093V18.9733C22.9093 19.2978 23.0533 19.6055 23.3026 19.8133C23.5518 20.021 23.8805 20.1073 24.1997 20.0492L24.2652 20.0373C24.2652 20.0373 24.2654 20.0372 24.2655 20.0372C24.9234 19.9169 25.5956 20.0933 26.1095 20.5216C26.6233 20.95 26.918 21.5793 26.918 22.2482C26.918 22.9172 26.6233 23.5466 26.1095 23.9749C25.5956 24.4032 24.9236 24.5799 24.2656 24.4596L24.1999 24.4475C23.8806 24.3891 23.5519 24.4755 23.3027 24.6833C23.0534 24.8912 22.9093 25.1989 22.9093 25.5235V31.8057H18.2162C17.6798 29.952 15.9737 28.6155 13.955 28.6155C11.9364 28.6155 10.2304 29.952 9.69402 31.8057H3.08984V14.7549ZM20.496 40.0757C19.4821 40.9208 18.9005 42.1627 18.9005 43.4833C18.9005 44.8032 19.4821 46.0449 20.496 46.8901C21.1904 47.4689 22.0313 47.8146 22.9093 47.8986V53.8126H5.85845C4.33191 53.8126 3.08984 52.5707 3.08984 51.044V33.9932H10.6158C11.2014 33.9932 11.6831 33.532 11.7086 32.9471C11.7609 31.7448 12.7477 30.8031 13.9552 30.8031C15.1625 30.8031 16.1494 31.7448 16.2017 32.9471C16.2272 33.5321 16.7089 33.9932 17.2945 33.9932H22.9094V39.0669C22.0311 39.151 21.1903 39.4969 20.496 40.0757Z" fill="#B38C00"/>
<path d="M46.0098 43.4009C45.5517 43.4009 45.1358 43.106 44.9809 42.6756C44.8287 42.2528 44.9589 41.7639 45.3022 41.4735C45.6611 41.1699 46.1875 41.132 46.587 41.379C46.97 41.6161 47.1711 42.0797 47.0827 42.5216C46.9818 43.0267 46.5245 43.4009 46.0098 43.4009Z" fill="#B38C00"/>
</g>
<defs>
<clipPath id="clip0_335_5443">
<rect width="56" height="56" fill="white"/>
</clipPath>
</defs>
</svg>
